# Blender 4.2.0
# www.blender.org
mtllib 3DPN_CrumpledPaper.mtl
o CrumpledPaper
v -0.629656 0.569128 0.868068
v 0.865170 0.490485 0.802487
v -0.855930 0.152778 -0.738143
v 0.467748 0.482080 -0.463051
v -0.670964 0.029656 0.102198
v -0.072749 0.475125 0.527166
v 0.978618 0.300648 -0.149727
v -0.077925 0.339181 -0.684792
v -0.143052 0.141436 -0.140455
v -0.699512 0.321147 0.545108
v 0.375241 0.463496 0.693725
v 0.798360 0.383310 -0.391261
v -0.549549 0.327741 -0.686705
v -0.787395 0.005316 -0.361337
v -0.396566 0.530450 0.632449
v 0.960958 0.349889 0.351957
v 0.293809 0.298085 -0.696669
v -0.099125 0.196660 -0.412155
v -0.112190 0.258497 0.167615
v -0.443764 0.106852 -0.046951
v 0.405199 0.185454 -0.228649
v 0.398841 0.298648 0.223776
v -0.448856 0.300424 0.327666
v -0.532602 0.156448 -0.349733
v 0.437445 0.207449 -0.518324
v -0.705589 0.472304 0.755056
v 0.625305 0.463966 0.776010
v 0.636196 0.454689 -0.408721
v -0.726081 0.252420 -0.725189
v -0.715825 -0.026576 -0.134278
v -0.249287 0.498267 0.547480
v 0.998185 0.303362 0.105381
v 0.124542 0.288398 -0.714563
v -0.071147 0.271240 -0.544881
v -0.130904 0.173822 0.004635
v -0.555799 0.070443 0.024340
v 0.109843 0.155339 -0.198039
v -0.668112 0.156520 0.323931
v 0.133176 0.466524 0.570123
v 0.910223 0.334390 -0.311175
v -0.328625 0.362392 -0.664843
v -0.840545 0.086477 -0.575231
v -0.515288 0.550781 0.737265
v 0.925355 0.415015 0.631437
v 0.397012 0.377821 -0.602464
v -0.124151 0.153902 -0.272962
v -0.095135 0.378022 0.355939
v -0.314079 0.128493 -0.094697
v 0.717276 0.237172 -0.206636
v 0.398961 0.226929 -0.012625
v 0.399717 0.384647 0.493915
v 0.118169 0.271809 0.164981
v 0.688806 0.318969 0.285016
v -0.429377 0.177225 0.136005
v -0.452232 0.439191 0.503760
v -0.585371 0.321343 0.444818
v -0.289986 0.267120 0.221234
v -0.555988 0.253857 -0.518966
v -0.492055 0.106820 -0.189382
v -0.670511 0.086580 -0.363235
v -0.337128 0.188142 -0.366061
v 0.394489 0.252591 -0.615140
v 0.443725 0.182033 -0.396094
v 0.173817 0.185585 -0.486003
v 0.642280 0.284636 -0.478954
v 0.711314 0.250008 -0.376314
v 0.148423 0.156999 -0.350567
v 0.187427 0.234652 -0.609949
v -0.336446 0.141430 -0.215222
v -0.607145 0.044690 -0.174459
v -0.725332 0.187594 -0.567306
v -0.288952 0.400690 0.399391
v -0.591373 0.466770 0.644571
v -0.548983 0.183417 0.245753
v 0.670919 0.388396 0.585225
v 0.134701 0.384991 0.402596
v 0.103206 0.193092 -0.021794
v 0.719413 0.264342 0.055971
v -0.289991 0.168616 0.049097
v -0.344194 0.294670 -0.498526
v 0.540358 0.352966 -0.533701
vn -0.3789 -0.5991 0.7054
vn 0.1318 0.9049 0.4047
vn -0.1155 0.9667 -0.2282
vn -0.1768 0.9830 -0.0493
vn -0.1126 0.9733 -0.2003
vn 0.0557 0.9288 -0.3663
vn -0.0566 0.9714 -0.2307
vn -0.3935 0.8449 -0.3624
vn -0.3961 0.7276 -0.5601
vn -0.0781 0.8221 -0.5639
vn -0.4286 0.8339 0.3477
vn -0.4323 0.8323 0.3469
vn 0.0239 0.9547 0.2965
vn -0.0799 0.8487 0.5227
vn -0.0541 0.9781 0.2010
vn -0.5350 0.4309 0.7267
vn -0.3149 0.8854 0.3419
vn -0.2028 0.9792 0.0078
vn -0.3485 0.9142 0.2069
vn 0.0878 0.9601 0.2655
vn -0.0207 0.9988 0.0453
vn -0.0966 0.9949 -0.0288
vn 0.2464 0.8938 0.3746
vn 0.1960 0.8706 0.4512
vn -0.0459 0.9166 0.3972
vn -0.1404 0.9404 0.3097
vn -0.1693 0.9811 0.0936
vn -0.0388 0.9942 0.1003
vn -0.4939 0.8144 0.3048
vn -0.4724 0.8793 -0.0612
vn -0.3840 0.9223 0.0424
vn -0.6158 0.7180 0.3244
vn -0.5594 0.6971 0.4484
vn -0.4335 0.7549 0.4921
vn -0.2175 0.7731 -0.5958
vn -0.1307 0.8393 -0.5277
vn 0.0154 0.8524 -0.5227
vn -0.4696 0.7085 -0.5267
vn -0.3774 0.8158 -0.4383
vn -0.2999 0.8267 -0.4761
vn -0.4927 0.7698 -0.4059
vn -0.5029 0.6610 -0.5570
vn -0.4072 0.7314 -0.5470
vn 0.0298 0.9646 -0.2620
vn 0.1086 0.9310 -0.3486
vn -0.0406 0.9178 -0.3950
vn 0.0072 0.8773 -0.4799
vn 0.0997 0.8776 -0.4689
vn 0.1689 0.9076 -0.3843
vn -0.1025 0.9722 -0.2104
vn -0.0895 0.9057 -0.4145
vn -0.0599 0.9412 -0.3325
vn -0.1182 0.9828 -0.1420
vn -0.0350 0.9639 -0.2640
vn -0.0775 0.9729 -0.2180
vn -0.1925 0.9362 -0.2939
vn -0.2183 0.8281 -0.5163
vn -0.1280 0.8732 -0.4702
vn -0.1946 0.9076 0.3719
vn -0.1503 0.8120 0.5640
vn 0.1262 0.8145 0.5662
vn -0.5384 -0.0741 0.8394
vn -0.4783 0.4197 0.7714
vn -0.4183 -0.3595 0.8342
vt 0.875000 0.875000
vt 1.000000 0.875000
vt 1.000000 1.000000
vt 0.875000 1.000000
vt 0.375000 0.875000
vt 0.500000 0.875000
vt 0.500000 1.000000
vt 0.375000 1.000000
vt 0.375000 0.375000
vt 0.500000 0.375000
vt 0.500000 0.500000
vt 0.375000 0.500000
vt 0.875000 0.375000
vt 1.000000 0.375000
vt 1.000000 0.500000
vt 0.875000 0.500000
vt 0.625000 0.375000
vt 0.750000 0.375000
vt 0.750000 0.500000
vt 0.625000 0.500000
vt 0.625000 0.125000
vt 0.750000 0.125000
vt 0.750000 0.250000
vt 0.625000 0.250000
vt 0.875000 0.125000
vt 1.000000 0.125000
vt 1.000000 0.250000
vt 0.875000 0.250000
vt 0.125000 0.375000
vt 0.250000 0.375000
vt 0.250000 0.500000
vt 0.125000 0.500000
vt 0.125000 0.125000
vt 0.250000 0.125000
vt 0.250000 0.250000
vt 0.125000 0.250000
vt 0.375000 0.125000
vt 0.500000 0.125000
vt 0.500000 0.250000
vt 0.375000 0.250000
vt 0.125000 0.875000
vt 0.250000 0.875000
vt 0.250000 1.000000
vt 0.125000 1.000000
vt 0.125000 0.625000
vt 0.250000 0.625000
vt 0.250000 0.750000
vt 0.125000 0.750000
vt 0.375000 0.625000
vt 0.500000 0.625000
vt 0.500000 0.750000
vt 0.375000 0.750000
vt 0.625000 0.875000
vt 0.750000 0.875000
vt 0.750000 1.000000
vt 0.625000 1.000000
vt 0.625000 0.625000
vt 0.750000 0.625000
vt 0.750000 0.750000
vt 0.625000 0.750000
vt 0.875000 0.625000
vt 1.000000 0.625000
vt 1.000000 0.750000
vt 0.875000 0.750000
vt 0.000000 0.625000
vt 0.000000 0.750000
vt 0.000000 0.500000
vt 0.000000 0.875000
vt 0.000000 1.000000
vt 0.250000 0.000000
vt 0.375000 0.000000
vt 0.500000 0.000000
vt 0.000000 0.125000
vt 0.000000 0.250000
vt 0.000000 0.000000
vt 0.125000 0.000000
vt 0.000000 0.375000
vt 0.750000 0.000000
vt 0.875000 0.000000
vt 1.000000 0.000000
vt 0.625000 0.000000
s 0
f 81/1/1 28/2/1 4/3/1 45/4/1
f 80/5/2 34/6/2 8/7/2 41/8/2
f 79/9/3 35/10/3 9/11/3 48/12/3
f 78/13/4 32/14/4 7/15/4 49/16/4
f 77/17/5 50/18/5 21/19/5 37/20/5
f 76/21/6 51/22/6 22/23/6 52/24/6
f 75/25/7 44/26/7 16/27/7 53/28/7
f 74/29/8 54/30/8 20/31/8 36/32/8
f 73/33/9 55/34/9 23/35/9 56/36/9
f 72/37/10 47/38/10 19/39/10 57/40/10
f 71/41/11 58/42/11 13/43/11 29/44/11
f 70/45/12 59/46/12 24/47/12 60/48/12
f 69/49/13 46/50/13 18/51/13 61/52/13
f 68/53/14 62/54/14 17/55/14 33/56/14
f 67/57/15 63/58/15 25/59/15 64/60/15
f 66/61/16 40/62/16 12/63/16 65/64/16
f 63/58/17 66/61/17 65/64/17 25/59/17
f 21/19/18 49/16/18 66/61/18 63/58/18
f 49/16/19 7/15/19 40/62/19 66/61/19
f 46/50/20 67/57/20 64/60/20 18/51/20
f 9/11/21 37/20/21 67/57/21 46/50/21
f 37/20/22 21/19/22 63/58/22 67/57/22
f 34/6/23 68/53/23 33/56/23 8/7/23
f 18/51/24 64/60/24 68/53/24 34/6/24
f 64/60/25 25/59/25 62/54/25 68/53/25
f 59/46/26 69/49/26 61/52/26 24/47/26
f 20/31/27 48/12/27 69/49/27 59/46/27
f 48/12/28 9/11/28 46/50/28 69/49/28
f 30/65/29 70/45/29 60/48/29 14/66/29
f 5/67/30 36/32/30 70/45/30 30/65/30
f 36/32/31 20/31/31 59/46/31 70/45/31
f 42/68/32 71/41/32 29/44/32 3/69/32
f 14/66/33 60/48/33 71/41/33 42/68/33
f 60/48/34 24/47/34 58/42/34 71/41/34
f 55/34/35 72/37/35 57/40/35 23/35/35
f 15/70/36 31/71/36 72/37/36 55/34/36
f 31/71/37 6/72/37 47/38/37 72/37/37
f 26/73/38 73/33/38 56/36/38 10/74/38
f 1/75/39 43/76/39 73/33/39 26/73/39
f 43/76/40 15/70/40 55/34/40 73/33/40
f 38/77/41 74/29/41 36/32/41 5/67/41
f 10/74/42 56/36/42 74/29/42 38/77/42
f 56/36/43 23/35/43 54/30/43 74/29/43
f 51/22/44 75/25/44 53/28/44 22/23/44
f 11/78/45 27/79/45 75/25/45 51/22/45
f 27/79/46 2/80/46 44/26/46 75/25/46
f 47/38/47 76/21/47 52/24/47 19/39/47
f 6/72/48 39/81/48 76/21/48 47/38/48
f 39/81/49 11/78/49 51/22/49 76/21/49
f 35/10/50 77/17/50 37/20/50 9/11/50
f 19/39/51 52/24/51 77/17/51 35/10/51
f 52/24/52 22/23/52 50/18/52 77/17/52
f 50/18/53 78/13/53 49/16/53 21/19/53
f 22/23/54 53/28/54 78/13/54 50/18/54
f 53/28/55 16/27/55 32/14/55 78/13/55
f 54/30/56 79/9/56 48/12/56 20/31/56
f 23/35/57 57/40/57 79/9/57 54/30/57
f 57/40/58 19/39/58 35/10/58 79/9/58
f 58/42/59 80/5/59 41/8/59 13/43/59
f 24/47/60 61/52/60 80/5/60 58/42/60
f 61/52/61 18/51/61 34/6/61 80/5/61
f 62/54/62 81/1/62 45/4/62 17/55/62
f 25/59/63 65/64/63 81/1/63 62/54/63
f 65/64/64 12/63/64 28/2/64 81/1/64
